<svg id="Flat" height="512" viewBox="0 0 512 512" width="512" xmlns="http://www.w3.org/2000/svg"><g><g><g><path d="m288 488 16-24h42a30 30 0 0 0 30-30v-26h-120v-192h-42.3772a30 30 0 0 0 -28.4605 20.5132l-25.1623 75.4868v88l-40 72v16z" fill="#ffd4cf"/><rect fill="#fa5d3f" height="408" rx="20" width="224" x="232" y="24"/><path d="m264 112h160v176h-160z" fill="#fcde96"/><path d="m288 216h40v40h-40z" fill="#fffdfa"/><path d="m224 288h32a40 40 0 0 0 40-40v-32h-72z" fill="#ffd4cf"/><g fill="#f8feff"><path d="m432 136h-16v-16h-16v-16h24a8 8 0 0 1 8 8z"/><path d="m424 296h-24v-16h16v-16h16v24a8 8 0 0 1 -8 8z"/><path d="m272 136h-16v-24a8 8 0 0 1 8-8h24v16h-16z"/></g></g><g fill="#fffdfa"><path d="m360 144h40v40h-40z"/><path d="m288 144h40v40h-40z"/><path d="m360 216h40v40h-40z"/></g><path d="m304 48h80v16h-80z" fill="#f8feff"/><path d="m272 48h16v16h-16z" fill="#f8feff"/><path d="m400 48h16v16h-16z" fill="#f8feff"/><g><circle cx="344" cy="352" fill="#fac850" r="48"/><path d="m336 376a7.9757 7.9757 0 0 1 -5.6572-2.3433l-16-16 11.3144-11.3134 10.3428 10.3432 26.3428-26.3432 11.3144 11.3134-32 32a7.9757 7.9757 0 0 1 -5.6572 2.3433z" fill="#fffdfa"/></g></g><path d="m110.5244 211.1548a122.9758 122.9758 0 0 1 -48.5313-77.1067l-5.9931-38.0507 71.9007-32.0608 71.9 32.0608-6.055 38.3647a122.9389 122.9389 0 0 1 -49.1643 77.5584l-16.6167 12.0795z" fill="#79d8eb"/><path d="m119.81 167.9976a7.9763 7.9763 0 0 1 -5.6573-2.3433l-24-24 11.3145-11.3135 18.3428 18.3433 42.3427-42.3433 11.3145 11.3135-48 48a7.9763 7.9763 0 0 1 -5.6572 2.3433z" fill="#f8feff"/></g></svg>